:FULLY-SPECIFIED
:FORCE-ALL-JOINTS-BE-3DOF
:DEGREES
918
root -1.38004 14.9503 -36.4129 364.913 -35.1887 356.976
lfemur -29.539 16.8541 3.88978
ltibia 46.1989 0 0
lfoot 2.52598 13.092 0
ltoes -14.5329 0 0
rfemur -24.4917 -17.0716 7.60365
rtibia 59.6065 0 0
rfoot -14.598 -21.1469 0
rtoes -12.2968 0 0
lowerback 14.3223 3.34295 -0.483721
upperback -1.18365 4.52296 1.55367
thorax -9.29145 2.2191 0.939275
lowerneck -4.32035 6.2762 0.230804
upperneck 6.60393 8.47616 -2.4066
head 3.38868 4.11304 -0.457516
lclavicle -6.93172e-14 -1.95775e-14 0
lhumerus -9.3773 -13.4824 71.4904
lradius 68.3433 0 0
lwrist -20.0631 0 0
lhand -33.7265 34.1857 0
lfingers 7.12502 0 0
lthumb -6.91521 67.5224 0
rclavicle -6.93172e-14 -1.95775e-14 0
rhumerus -50.4205 20.5428 -84.1797
rradius 116.347 0 0
rwrist -80.3836 0 0
rhand -5.44349 -18.2125 0
rfingers 7.12502 0 0
rthumb 20.3585 -47.0709 0
919
root -1.37065 14.9508 -36.3768 364.873 -34.9189 357.005
lfemur -29.4382 16.7858 3.78305
ltibia 46.2619 0 0
lfoot 2.36039 13.1449 0
ltoes -14.5558 0 0
rfemur -24.6315 -17.0217 7.57446
rtibia 59.4964 0 0
rfoot -14.372 -20.9968 0
rtoes -12.1729 0 0
lowerback 14.3176 3.32646 -0.524036
upperback -1.18027 4.49462 1.55806
thorax -9.28436 2.20745 0.973318
lowerneck -4.30488 6.21453 0.182205
upperneck 6.6146 8.3925 -2.36461
head 3.38995 4.07155 -0.440319
lclavicle -6.8759e-14 -1.9533e-14 0
lhumerus -9.44128 -13.7185 71.6637
lradius 68.5436 0 0
lwrist -19.8492 0 0
lhand -33.699 34.2025 0
lfingers 7.12502 0 0
lthumb -6.88873 67.6381 0
rclavicle -6.8759e-14 -1.9533e-14 0
rhumerus -50.1175 20.5669 -84.1025
rradius 116.281 0 0
rwrist -80.0635 0 0
rhand -5.38413 -18.2769 0
rfingers 7.12502 0 0
rthumb 20.4154 -47.1275 0
920
root -1.3612 14.9512 -36.3405 364.833 -34.6476 357.034
lfemur -29.3367 16.7171 3.67572
ltibia 46.3251 0 0
lfoot 2.19383 13.1982 0
ltoes -14.5789 0 0
rfemur -24.7722 -16.9716 7.54509
rtibia 59.3856 0 0
rfoot -14.1447 -20.8458 0
rtoes -12.0483 0 0
lowerback 14.3128 3.30988 -0.564592
upperback -1.17686 4.46611 1.56247
thorax -9.27722 2.19572 1.00756
lowerneck -4.2893 6.15248 0.133322
upperneck 6.62531 8.30833 -2.32236
head 3.39121 4.02981 -0.423024
lclavicle -6.81964e-14 -1.94871e-14 0
lhumerus -9.50576 -13.9562 71.838
lradius 68.7452 0 0
lwrist -19.6338 0 0
lhand -33.6714 34.2193 0
lfingers 7.12502 0 0
lthumb -6.86204 67.7545 0
rclavicle -6.81964e-14 -1.94871e-14 0
rhumerus -49.8126 20.5913 -84.025
rradius 116.214 0 0
rwrist -79.7413 0 0
rhand -5.32426 -18.3415 0
rfingers 7.12502 0 0
rthumb 20.4727 -47.1842 0
921
root -1.35169 14.9517 -36.304 364.793 -34.3747 357.064
lfemur -29.2346 16.6479 3.5678
ltibia 46.3887 0 0
lfoot 2.02632 13.2519 0
ltoes -14.602 0 0
rfemur -24.9138 -16.9212 7.51553
rtibia 59.2742 0 0
rfoot -13.916 -20.6939 0
rtoes -11.923 0 0
lowerback 14.3081 3.2932 -0.605386
upperback -1.17344 4.43744 1.5669
thorax -9.27005 2.18392 1.04199
lowerneck -4.27364 6.09007 0.0841602
upperneck 6.63607 8.22367 -2.27988
head 3.39247 3.98782 -0.405632
lclavicle -6.76294e-14 -1.94399e-14 0
lhumerus -9.57072 -14.1954 72.0133
lradius 68.9482 0 0
lwrist -19.417 0 0
lhand -33.6435 34.2361 0
lfingers 7.12502 0 0
lthumb -6.83514 67.8717 0
rclavicle -6.76294e-14 -1.94399e-14 0
rhumerus -49.5059 20.6159 -83.947
rradius 116.148 0 0
rwrist -79.4169 0 0
rhand -5.26389 -18.4064 0
rfingers 7.12502 0 0
rthumb 20.5306 -47.2411 0
922
root -1.34213 14.9521 -36.2673 364.752 -34.1002 357.093
lfemur -29.1318 16.5783 3.45928
ltibia 46.4526 0 0
lfoot 1.85787 13.3058 0
ltoes -14.6254 0 0
rfemur -25.0563 -16.8705 7.4858
rtibia 59.1621 0 0
rfoot -13.6859 -20.5411 0
rtoes -11.7969 0 0
lowerback 14.3033 3.27642 -0.646414
upperback -1.16999 4.4086 1.57135
thorax -9.26282 2.17206 1.07662
lowerneck -4.25788 6.0273 0.0347225
upperneck 6.64685 8.13851 -2.23717
head 3.39373 3.94559 -0.388146
lclavicle -6.70581e-14 -1.93913e-14 0
lhumerus -9.63615 -14.4361 72.1896
lradius 69.1526 0 0
lwrist -19.1989 0 0
lhand -33.6154 34.2528 0
lfingers 7.12502 0 0
lthumb -6.80803 67.9896 0
rclavicle -6.70581e-14 -1.93913e-14 0
rhumerus -49.1974 20.6407 -83.8686
rradius 116.08 0 0
rwrist -79.0903 0 0
rhand -5.20301 -18.4715 0
rfingers 7.12502 0 0
rthumb 20.5889 -47.2982 0
923
root -1.33252 14.9526 -36.2305 364.712 -33.8243 357.123
lfemur -29.0284 16.5084 3.35018
ltibia 46.5169 0 0
lfoot 1.68849 13.3601 0
ltoes -14.6488 0 0
rfemur -25.1996 -16.8196 7.45589
rtibia 59.0494 0 0
rfoot -13.4545 -20.3874 0
rtoes -11.6702 0 0
lowerback 14.2985 3.25955 -0.68767
upperback -1.16652 4.37959 1.57582
thorax -9.25556 2.16013 1.11144
lowerneck -4.24203 5.96417 -0.0149866
upperneck 6.65767 8.05288 -2.19422
head 3.39498 3.90312 -0.370565
lclavicle -6.64825e-14 -1.93413e-14 0
lhumerus -9.70205 -14.6782 72.3668
lradius 69.3583 0 0
lwrist -18.9793 0 0
lhand -33.5871 34.2696 0
lfingers 7.12502 0 0
lthumb -6.78071 68.1081 0
rclavicle -6.64825e-14 -1.93413e-14 0
rhumerus -48.8872 20.6657 -83.7898
rradius 116.013 0 0
rwrist -78.7617 0 0
rhand -5.14164 -18.5368 0
rfingers 7.12502 0 0
rthumb 20.6477 -47.3554 0
924
root -1.32286 14.953 -36.1934 364.67 -33.5468 357.152
lfemur -28.9244 16.438 3.24051
ltibia 46.5815 0 0
lfoot 1.51821 13.4146 0
ltoes -14.6724 0 0
rfemur -25.3437 -16.7684 7.42582
rtibia 58.9361 0 0
rfoot -13.2218 -20.2328 0
rtoes -11.5427 0 0
lowerback 14.2937 3.24259 -0.729152
upperback -1.16303 4.35043 1.58031
thorax -9.24825 2.14813 1.14644
lowerneck -4.22609 5.9007 -0.0649633
upperneck 6.66853 7.96676 -2.15104
head 3.39624 3.86042 -0.352892
lclavicle -6.59027e-14 -1.92901e-14 0
lhumerus -9.76839 -14.9218 72.5451
lradius 69.5653 0 0
lwrist -18.7584 0 0
lhand -33.5586 34.2862 0
lfingers 7.12502 0 0
lthumb -6.75319 68.2273 0
rclavicle -6.59027e-14 -1.92901e-14 0
rhumerus -48.5752 20.6909 -83.7106
rradius 115.945 0 0
rwrist -78.431 0 0
rhand -5.07979 -18.6023 0
rfingers 7.12502 0 0
rthumb 20.707 -47.4127 0
925
root -1.31314 14.9535 -36.1562 364.629 -33.2679 357.182
lfemur -28.8198 16.3673 3.13028
ltibia 46.6464 0 0
lfoot 1.34703 13.4695 0
ltoes -14.6961 0 0
rfemur -25.4886 -16.7169 7.39558
rtibia 58.8222 0 0
rfoot -12.9879 -20.0775 0
rtoes -11.4145 0 0
lowerback 14.2888 3.22554 -0.770854
upperback -1.15952 4.32111 1.58482
thorax -9.24091 2.13607 1.18162
lowerneck -4.21006 5.83687 -0.115204
upperneck 6.67942 7.88018 -2.10763
head 3.39749 3.81748 -0.335128
lclavicle -6.53187e-14 -1.92374e-14 0
lhumerus -9.83517 -15.1668 72.7243
lradius 69.7737 0 0
lwrist -18.5361 0 0
lhand -33.5299 34.3029 0
lfingers 7.12502 0 0
lthumb -6.72547 68.3471 0
rclavicle -6.53187e-14 -1.92374e-14 0
rhumerus -48.2616 20.7164 -83.6311
rradius 115.877 0 0
rwrist -78.0982 0 0
rhand -5.01747 -18.668 0
rfingers 7.12502 0 0
rthumb 20.7667 -47.4703 0
926
root -1.30337 14.954 -36.1188 364.588 -32.9876 357.213
lfemur -28.7146 16.2962 3.01949
ltibia 46.7116 0 0
lfoot 1.17497 13.5247 0
ltoes -14.7199 0 0
rfemur -25.6344 -16.6652 7.36518
rtibia 58.7077 0 0
rfoot -12.7526 -19.9213 0
rtoes -11.2857 0 0
lowerback 14.2839 3.2084 -0.812773
upperback -1.15599 4.29164 1.58936
thorax -9.23352 2.12395 1.21699
lowerneck -4.19395 5.77271 -0.165703
upperneck 6.69034 7.79313 -2.064
head 3.39874 3.77432 -0.317274
lclavicle -6.47307e-14 -1.91835e-14 0
lhumerus -9.90238 -15.4132 72.9044
lradius 69.9833 0 0
lwrist -18.3125 0 0
lhand -33.501 34.3195 0
lfingers 7.12502 0 0
lthumb -6.69756 68.4675 0
rclavicle -6.47307e-14 -1.91835e-14 0
rhumerus -47.9462 20.742 -83.5511
rradius 115.808 0 0
rwrist -77.7634 0 0
rhand -4.95468 -18.734 0
rfingers 7.12502 0 0
rthumb 20.8269 -47.5279 0
